<?xml version="1.0" standalone="no"?><!DOCTYPE svg PUBLIC "-//W3C//DTD SVG 1.1//EN" "http://www.w3.org/Graphics/SVG/1.1/DTD/svg11.dtd"><svg t="1488508896844" class="icon" style="" viewBox="0 0 1178 1024" version="1.1" xmlns="http://www.w3.org/2000/svg" p-id="2532" xmlns:xlink="http://www.w3.org/1999/xlink" width="230.078125" height="200"><defs><style type="text/css"></style></defs><path d="M972.8 716.8 972.8 665.6 1177.6 665.6 1177.6 716.8 972.8 716.8ZM1024 563.2 1177.6 563.2 1177.6 614.4 1024 614.4 1024 563.2ZM590.1312 50.7392C330.7008 50.7392 116.3264 257.2288 111.36 512L64 512C64 229.2224 296.0896 0 582.4 0 868.7104 0 1100.8 229.2224 1100.8 512L1050.9312 512C1055.8464 257.2288 849.5616 50.7392 590.1312 50.7392ZM153.6 614.4 0 614.4 0 563.2 153.6 563.2 153.6 614.4ZM204.8 716.8 0 716.8 0 665.6 204.8 665.6 204.8 716.8ZM345.4976 552.7552C345.4976 535.552 344.32 521.1648 342.5792 505.1392L380.928 505.1392C378.5728 520.0384 377.9584 533.248 377.9584 551.6288L377.9584 701.44C393.9328 698.0096 406.8864 694.5792 419.8912 691.0976L419.8912 448.256 386.2528 448.256C367.9232 448.256 359.68 448.8704 339.0464 450.56 340.7872 435.0976 341.4016 420.1472 341.4016 395.4688L341.4016 329.4208C341.4016 304.7424 340.7872 288.1024 339.0464 272.5888 356.1472 274.8928 370.2784 275.5072 390.9632 275.5072L460.032 275.5072C485.376 275.5072 499.5584 274.8928 513.7408 272.5888 511.9488 288.1024 511.3344 303.0528 511.3344 328.2944L511.3344 394.3424C511.3344 425.8304 511.9488 438.528 513.0752 449.3312 536.9344 435.7632 560.128 419.1232 582.7584 396.5952 598.1184 381.696 608.1536 368.4864 620.544 348.416L580.4032 348.416C555.6224 348.416 542.0544 349.5424 529.0496 351.8464L529.0496 314.5216C542.0544 316.8256 555.6224 317.952 582.1952 317.952L636.4672 317.952C648.2944 290.9696 654.1824 272.0256 656.5376 255.3856L695.5008 261.12C692.5312 268.5952 692.5312 268.5952 684.9024 289.8432 680.7552 300.7488 678.4 307.0464 673.6384 317.952L792.8832 317.952C820.6336 317.952 834.2016 317.3888 847.2064 314.5216L847.2064 351.8464C833.5872 348.9792 820.6336 348.416 795.2384 348.416L738.56 348.416C753.3568 370.2272 758.6304 376.5248 771.6352 389.1712 799.9488 416.7168 824.7296 432.7936 870.1952 452.3008 860.16 462.08 854.8352 469.504 847.2064 484.4544 791.0912 452.864 761.0368 428.7488 730.9312 391.424 720.2816 378.8288 714.3936 369.6128 702.0032 348.416L658.8928 348.416C640 382.8224 625.2544 402.944 598.7328 427.6224 574.5152 450.56 552.0896 467.8144 524.9536 483.8912 516.6592 471.2448 511.9488 465.5104 500.736 456.9088 504.576 454.9632 508.2624 452.096 512.0512 449.9456 499.4048 448.8704 486.5536 448.256 464.7424 448.256L453.5296 448.256 453.5296 540.7232 468.8896 540.7232C492.4928 540.7232 506.624 540.16 518.4512 537.856L518.4512 574.5664C503.0912 572.8768 487.168 571.6992 468.8896 571.6992L453.5296 571.6992 453.5296 681.9328C470.0672 677.3248 502.528 666.4192 534.9888 654.3872L536.1664 687.104C468.8896 711.2192 425.216 724.4288 361.472 740.5056 338.432 746.8032 332.544 748.544 317.184 753.7152L307.1488 714.6496C321.8944 712.9088 321.8944 712.9088 345.4976 708.9152L345.4976 552.7552ZM478.3104 418.4064 478.3104 306.4832 375.04 306.4832 375.04 418.4064 478.3104 418.4064ZM604.0064 461.4656 604.0064 425.8816C616.3968 427.6224 624.6912 428.1856 642.9696 428.1856L716.1344 428.1856C733.8496 428.1856 740.9664 427.6224 753.92 425.8816L753.92 461.4656C741.5296 459.776 731.4944 459.2128 716.1344 459.2128L642.9696 459.2128C627.6096 459.2128 615.8336 459.776 604.0064 461.4656ZM581.5808 540.16C556.8 540.16 544.4096 540.7232 532.0192 543.5904L532.0192 505.7024C545.024 508.5696 555.0592 509.1328 580.4032 509.1328L795.2384 509.1328C821.8112 509.1328 833.024 508.5696 845.9776 505.7024L845.9776 543.5904C832.4096 541.2864 818.2784 540.16 794.0608 540.16L645.9392 540.16C631.1936 578.048 631.1936 578.048 622.8992 596.3776L761.6 596.3776C786.3808 596.3776 797.5936 595.8144 806.4512 594.0736 804.7104 603.2896 804.7104 603.2896 798.7712 650.9568 792.8832 696.2688 784.64 727.8592 775.168 743.936 764.5696 761.7536 749.2096 767.488 713.7792 767.488 692.5312 767.488 674.8672 766.3104 644.1472 762.3168 643.584 748.544 641.792 738.7648 636.4672 723.2512 670.1056 731.2896 690.176 734.1568 714.9568 734.1568 737.9968 734.1568 743.8848 729.6 751.0016 707.7888 756.2752 689.408 762.2144 657.8176 764.5696 626.8416L621.7216 626.8416C618.1888 626.8416 615.2192 626.8416 614.656 626.8416 595.7632 627.968 595.7632 627.968 588.6976 627.968 581.0176 627.968 579.84 627.968 571.5456 629.0944 592.2304 584.9088 598.1184 570.5728 609.3312 540.16L581.5808 540.16Z" p-id="2533" fill="#ffffff"></path></svg>